HIERARCHY
ROOT mixamorig:Hips
{
	OFFSET 0.000000 201.639420 0.000000
	CHANNELS 6 Xposition Yposition Zposition Xrotation Yrotation Zrotation
	JOINT mixamorig:Spine
	{
		OFFSET 0.006200 19.524994 -2.481800
		CHANNELS 3 Xrotation Yrotation Zrotation
		JOINT mixamorig:Spine1
		{
			OFFSET -0.000900 22.835007 -2.825400
			CHANNELS 3 Xrotation Yrotation Zrotation
			JOINT mixamorig:Spine2
			{
				OFFSET -0.020600 26.552490 -3.193300
				CHANNELS 3 Xrotation Yrotation Zrotation
				JOINT mixamorig:Neck
				{
					OFFSET -0.060000 30.701813 1.352200
					CHANNELS 3 Xrotation Yrotation Zrotation
					JOINT mixamorig:Head
					{
						OFFSET -0.087200 22.547607 3.670900
						CHANNELS 3 Xrotation Yrotation Zrotation
						JOINT mixamorig:HeadTop_End
						{
							OFFSET -0.830600 40.355194 7.893500
							CHANNELS 3 Xrotation Yrotation Zrotation
							End Site
							{
								OFFSET 0.000000 30.592346 0.000000
							}
						}
						JOINT mixamorig:RightEye
						{
							OFFSET -6.302100 18.118591 16.197100
							CHANNELS 3 Xrotation Yrotation Zrotation
							End Site
							{
								OFFSET 0.000000 30.592346 0.000000
							}
						}
						JOINT mixamorig:LeftEye
						{
							OFFSET 6.741500 18.382690 16.401899
							CHANNELS 3 Xrotation Yrotation Zrotation
							End Site
							{
								OFFSET 0.000000 30.592346 0.000000
							}
						}
					}
				}
				JOINT mixamorig:LeftShoulder
				{
					OFFSET 11.924900 18.230499 1.425400
					CHANNELS 3 Xrotation Yrotation Zrotation
					JOINT mixamorig:LeftArm
					{
						OFFSET 25.435989 -0.697632 -5.229300
						CHANNELS 3 Xrotation Yrotation Zrotation
						JOINT mixamorig:LeftForeArm
						{
							OFFSET 54.684776 0.000000 0.000000
							CHANNELS 3 Xrotation Yrotation Zrotation
							JOINT mixamorig:LeftHand
							{
								OFFSET 55.098175 0.000000 0.000000
								CHANNELS 3 Xrotation Yrotation Zrotation
								JOINT mixamorig:LeftHandMiddle1
								{
									OFFSET 23.369751 0.000000 0.000000
									CHANNELS 3 Xrotation Yrotation Zrotation
									JOINT mixamorig:LeftHandMiddle2
									{
										OFFSET 6.378677 0.000000 0.000000
										CHANNELS 3 Xrotation Yrotation Zrotation
										JOINT mixamorig:LeftHandMiddle3
										{
											OFFSET 6.148331 0.000000 0.000000
											CHANNELS 3 Xrotation Yrotation Zrotation
											JOINT mixamorig:LeftHandMiddle4
											{
												OFFSET 6.582504 0.000000 0.000000
												CHANNELS 3 Xrotation Yrotation Zrotation
												End Site
												{
													OFFSET -1.168900 6.395691 1.028606
												}
											}
										}
									}
								}
								JOINT mixamorig:LeftHandThumb1
								{
									OFFSET 7.235672 -3.848206 5.434273
									CHANNELS 3 Xrotation Yrotation Zrotation
									JOINT mixamorig:LeftHandThumb2
									{
										OFFSET 6.568451 -3.792297 3.792300
										CHANNELS 3 Xrotation Yrotation Zrotation
										JOINT mixamorig:LeftHandThumb3
										{
											OFFSET 6.063080 -3.500519 3.500518
											CHANNELS 3 Xrotation Yrotation Zrotation
											JOINT mixamorig:LeftHandThumb4
											{
												OFFSET 4.793182 -2.767334 2.767349
												CHANNELS 3 Xrotation Yrotation Zrotation
												End Site
												{
													OFFSET 0.101639 6.054260 1.275483
												}
											}
										}
									}
								}
								JOINT mixamorig:LeftHandIndex1
								{
									OFFSET 23.101074 -0.309540 4.992809
									CHANNELS 3 Xrotation Yrotation Zrotation
									JOINT mixamorig:LeftHandIndex2
									{
										OFFSET 6.226883 0.000000 0.000000
										CHANNELS 3 Xrotation Yrotation Zrotation
										JOINT mixamorig:LeftHandIndex3
										{
											OFFSET 6.094330 0.000000 0.000000
											CHANNELS 3 Xrotation Yrotation Zrotation
											JOINT mixamorig:LeftHandIndex4
											{
												OFFSET 5.482605 0.000000 0.000000
												CHANNELS 3 Xrotation Yrotation Zrotation
												End Site
												{
													OFFSET -1.427902 5.233032 0.797164
												}
											}
										}
									}
								}
								JOINT mixamorig:LeftHandRing1
								{
									OFFSET 22.299240 0.021149 -3.964172
									CHANNELS 3 Xrotation Yrotation Zrotation
									JOINT mixamorig:LeftHandRing2
									{
										OFFSET 6.321869 0.000000 0.000000
										CHANNELS 3 Xrotation Yrotation Zrotation
										JOINT mixamorig:LeftHandRing3
										{
											OFFSET 5.899796 0.000000 0.000000
											CHANNELS 3 Xrotation Yrotation Zrotation
											JOINT mixamorig:LeftHandRing4
											{
												OFFSET 6.517899 0.000000 0.000000
												CHANNELS 3 Xrotation Yrotation Zrotation
												End Site
												{
													OFFSET -1.637299 6.232208 0.980890
												}
											}
										}
									}
								}
								JOINT mixamorig:LeftHandPinky1
								{
									OFFSET 20.463791 -0.302338 -8.562233
									CHANNELS 3 Xrotation Yrotation Zrotation
									JOINT mixamorig:LeftHandPinky2
									{
										OFFSET 6.908646 0.000000 0.000000
										CHANNELS 3 Xrotation Yrotation Zrotation
										JOINT mixamorig:LeftHandPinky3
										{
											OFFSET 4.622849 0.000000 0.000000
											CHANNELS 3 Xrotation Yrotation Zrotation
											JOINT mixamorig:LeftHandPinky4
											{
												OFFSET 5.216080 0.000000 0.000000
												CHANNELS 3 Xrotation Yrotation Zrotation
												End Site
												{
													OFFSET -0.606308 5.116241 0.814926
												}
											}
										}
									}
								}
							}
						}
					}
				}
				JOINT mixamorig:RightShoulder
				{
					OFFSET -12.001300 18.284088 1.348900
					CHANNELS 3 Xrotation Yrotation Zrotation
					JOINT mixamorig:RightArm
					{
						OFFSET -25.308500 -0.751312 -5.164599
						CHANNELS 3 Xrotation Yrotation Zrotation
						JOINT mixamorig:RightForeArm
						{
							OFFSET -54.684429 0.000000 0.000000
							CHANNELS 3 Xrotation Yrotation Zrotation
							JOINT mixamorig:RightHand
							{
								OFFSET -55.150291 0.000000 0.000000
								CHANNELS 3 Xrotation Yrotation Zrotation
								JOINT mixamorig:RightHandMiddle1
								{
									OFFSET -23.317566 0.000000 0.000000
									CHANNELS 3 Xrotation Yrotation Zrotation
									JOINT mixamorig:RightHandMiddle2
									{
										OFFSET -6.378403 0.000000 0.000000
										CHANNELS 3 Xrotation Yrotation Zrotation
										JOINT mixamorig:RightHandMiddle3
										{
											OFFSET -6.148193 0.000000 0.000000
											CHANNELS 3 Xrotation Yrotation Zrotation
											JOINT mixamorig:RightHandMiddle4
											{
												OFFSET -6.583389 0.000000 0.000000
												CHANNELS 3 Xrotation Yrotation Zrotation
												End Site
												{
													OFFSET 1.171692 6.395905 1.029786
												}
											}
										}
									}
								}
								JOINT mixamorig:RightHandThumb1
								{
									OFFSET -7.190521 -3.860474 5.435846
									CHANNELS 3 Xrotation Yrotation Zrotation
									JOINT mixamorig:RightHandThumb2
									{
										OFFSET -6.567429 -3.791718 3.791708
										CHANNELS 3 Xrotation Yrotation Zrotation
										JOINT mixamorig:RightHandThumb3
										{
											OFFSET -6.062469 -3.500153 3.500166
											CHANNELS 3 Xrotation Yrotation Zrotation
											JOINT mixamorig:RightHandThumb4
											{
												OFFSET -4.792618 -2.767029 2.767022
												CHANNELS 3 Xrotation Yrotation Zrotation
												End Site
												{
													OFFSET -0.100327 6.053253 1.276754
												}
											}
										}
									}
								}
								JOINT mixamorig:RightHandIndex1
								{
									OFFSET -23.048981 -0.310791 4.992554
									CHANNELS 3 Xrotation Yrotation Zrotation
									JOINT mixamorig:RightHandIndex2
									{
										OFFSET -6.227539 0.000000 0.000000
										CHANNELS 3 Xrotation Yrotation Zrotation
										JOINT mixamorig:RightHandIndex3
										{
											OFFSET -6.095047 0.000000 0.000000
											CHANNELS 3 Xrotation Yrotation Zrotation
											JOINT mixamorig:RightHandIndex4
											{
												OFFSET -5.484772 0.000000 0.000000
												CHANNELS 3 Xrotation Yrotation Zrotation
												End Site
												{
													OFFSET 1.420593 5.237305 0.797056
												}
											}
										}
									}
								}
								JOINT mixamorig:RightHandRing1
								{
									OFFSET -22.246323 0.020569 -3.963762
									CHANNELS 3 Xrotation Yrotation Zrotation
									JOINT mixamorig:RightHandRing2
									{
										OFFSET -6.322128 0.000000 0.000000
										CHANNELS 3 Xrotation Yrotation Zrotation
										JOINT mixamorig:RightHandRing3
										{
											OFFSET -5.900024 0.000000 0.000000
											CHANNELS 3 Xrotation Yrotation Zrotation
											JOINT mixamorig:RightHandRing4
											{
												OFFSET -6.518356 0.000000 0.000000
												CHANNELS 3 Xrotation Yrotation Zrotation
												End Site
												{
													OFFSET 1.636398 6.232697 0.982186
												}
											}
										}
									}
								}
								JOINT mixamorig:RightHandPinky1
								{
									OFFSET -20.411011 -0.303314 -8.561701
									CHANNELS 3 Xrotation Yrotation Zrotation
									JOINT mixamorig:RightHandPinky2
									{
										OFFSET -6.907349 0.000000 0.000000
										CHANNELS 3 Xrotation Yrotation Zrotation
										JOINT mixamorig:RightHandPinky3
										{
											OFFSET -4.623840 0.000000 0.000000
											CHANNELS 3 Xrotation Yrotation Zrotation
											JOINT mixamorig:RightHandPinky4
											{
												OFFSET -5.218353 0.000000 0.000000
												CHANNELS 3 Xrotation Yrotation Zrotation
												End Site
												{
													OFFSET 0.602097 5.118835 0.816273
												}
											}
										}
									}
								}
							}
						}
					}
				}
			}
		}
	}
	JOINT mixamorig:LeftUpLeg
	{
		OFFSET 18.168400 -13.561905 -0.039000
		CHANNELS 3 Xrotation Yrotation Zrotation
		JOINT mixamorig:LeftLeg
		{
			OFFSET 0.577358 -80.825211 -3.695000
			CHANNELS 3 Xrotation Yrotation Zrotation
			JOINT mixamorig:LeftFoot
			{
				OFFSET -0.577356 -83.370262 -6.520700
				CHANNELS 3 Xrotation Yrotation Zrotation
				JOINT mixamorig:LeftToeBase
				{
					OFFSET 0.750401 -20.798306 25.135401
					CHANNELS 3 Xrotation Yrotation Zrotation
					JOINT mixamorig:LeftToe_End
					{
						OFFSET -0.000500 0.001200 19.917799
						CHANNELS 3 Xrotation Yrotation Zrotation
						End Site
						{
							OFFSET 0.000000 19.917805 0.000000
						}
					}
				}
			}
		}
	}
	JOINT mixamorig:RightUpLeg
	{
		OFFSET -18.162500 -13.585098 -0.041000
		CHANNELS 3 Xrotation Yrotation Zrotation
		JOINT mixamorig:RightLeg
		{
			OFFSET -0.595024 -80.945297 -3.631900
			CHANNELS 3 Xrotation Yrotation Zrotation
			JOINT mixamorig:RightFoot
			{
				OFFSET 0.595024 -83.218193 -6.561200
				CHANNELS 3 Xrotation Yrotation Zrotation
				JOINT mixamorig:RightToeBase
				{
					OFFSET -0.753601 -20.807106 25.115000
					CHANNELS 3 Xrotation Yrotation Zrotation
					JOINT mixamorig:RightToe_End
					{
						OFFSET 0.000299 0.001700 19.918200
						CHANNELS 3 Xrotation Yrotation Zrotation
						End Site
						{
							OFFSET 0.000000 19.918203 0.000000
						}
					}
				}
			}
		}
	}
}
MOTION
Frames: 4
Frame Time: 0.033333
-1.864640 199.922058 -4.189770 -6.104990 -14.945694 -3.374691 8.854058 -4.029243 -8.137691 1.550465 -0.791061 -2.134119 1.575677 -0.740420 -2.137889 -0.842255 3.375630 -1.457068 13.203464 35.462004 -20.858399 -0.000000 -0.000002 -0.000002 -0.000000 -0.000002 -0.000002 -0.000000 -0.000002 -0.000002 0.553056 -4.156605 -12.041225 -32.893067 11.934266 -49.188949 0.000007 -62.564772 0.000004 -104.359615 13.831559 -37.578021 -0.717780 3.369346 -37.967133 3.554678 5.383037 -66.855620 3.623656 5.411877 -67.588793 -0.000000 -0.000000 0.000002 6.847601 -2.137239 -15.466950 14.084156 4.571557 13.524112 -8.274529 -20.683934 10.543323 0.000000 -0.000000 0.000001 0.503882 -1.079013 -46.491496 5.159420 5.810161 -83.199689 4.218627 5.619497 -73.773037 -0.000000 0.000000 -0.000000 -0.428904 0.520369 -11.612601 1.298042 3.678790 -38.859562 1.076145 3.385508 -35.259069 -0.000001 0.000001 -0.000001 -1.081977 1.929976 -10.946875 1.368329 3.764188 -39.942516 1.305136 3.687550 -38.969911 0.000000 0.000001 -0.000000 0.532070 12.732151 10.644237 -12.023895 47.694774 41.085951 -0.000117 105.355408 0.000096 22.803063 8.188526 0.716312 1.503912 -5.729159 55.433491 3.758260 -4.569784 78.858974 3.837154 -4.584560 79.847828 0.000001 0.000001 -0.000002 4.259071 -5.607710 2.215014 15.336794 -3.440441 -12.396950 -21.717691 21.749213 -5.642524 0.000000 -0.000000 -0.000000 0.878174 -0.906540 35.625068 2.305998 -4.021206 59.651075 1.681687 -3.584310 50.258878 0.000001 -0.000001 -0.000004 2.614116 -6.471460 70.016522 3.102177 -4.390449 70.474841 2.868736 -4.300762 67.394952 -0.000001 -0.000001 0.000002 4.187989 -7.387642 80.931717 3.194668 -4.422049 71.678696 3.124789 -4.398358 70.770083 -0.000001 -0.000000 -0.000002 -8.304609 8.838318 11.403955 12.948009 9.460047 1.415795 3.499632 8.169824 -8.066167 -0.555582 -0.000000 0.000001 0.000000 -0.000000 -0.000000 -3.616170 -12.329972 -0.462481 12.941404 0.713674 1.652188 -3.258275 -0.097199 -1.529181 -4.104939 -0.000001 -0.000001 -0.000000 0.000001 0.000000 
-1.563402 199.941025 -4.090077 -6.223010 -14.588034 -3.293526 8.799300 -4.059725 -8.020596 1.554757 -0.805452 -2.084638 1.580724 -0.755761 -2.087859 -0.846231 3.375081 -1.437107 12.994777 35.407530 -20.628903 -0.000001 0.000000 0.000002 -0.000001 0.000000 0.000002 -0.000001 0.000000 0.000002 0.557187 -3.974021 -11.927590 -32.969207 11.868678 -49.337670 -0.000030 -62.461568 -0.000035 -104.369833 13.962782 -37.531476 -0.663633 3.655452 -40.378801 3.777168 5.472389 -69.207513 3.846201 5.497986 -69.929533 0.000001 -0.000000 0.000001 6.740171 -2.147439 -15.543439 14.081356 4.611754 13.529925 -8.221592 -20.644725 10.577342 0.000001 -0.000000 0.000000 0.496841 -1.114712 -46.637000 5.166714 5.811043 -83.271761 4.225687 5.621536 -73.845027 -0.000000 -0.000000 -0.000001 -0.488592 0.637268 -13.150539 1.395566 3.796405 -40.355623 1.165667 3.508480 -36.748013 -0.000001 0.000001 0.000000 -1.088094 1.913682 -11.238991 1.380793 3.778981 -40.131873 1.317300 3.702531 -39.158803 0.000000 0.000001 0.000002 0.511340 12.743519 10.897250 -10.275015 45.406425 38.522677 -0.000022 104.625623 0.000017 22.033109 9.890417 -0.396318 1.495825 -5.721576 55.292775 3.747039 -4.567572 78.718149 3.825901 -4.582545 79.707051 0.000002 -0.000001 0.000001 4.259320 -5.608249 2.214789 15.336710 -3.441076 -12.396925 -21.717370 21.748654 -5.642785 -0.000002 -0.000003 -0.000001 0.878408 -0.906633 35.626185 2.306073 -4.021257 59.652215 1.681760 -3.584377 50.260012 -0.000003 0.000001 -0.000005 2.604023 -6.466416 69.875478 3.091407 -4.386625 70.334112 2.858183 -4.296368 67.254270 -0.000000 -0.000001 0.000001 4.176174 -7.385984 80.790333 3.183827 -4.418456 71.537967 3.113997 -4.394580 70.629381 -0.000001 0.000002 0.000001 -8.215340 8.872011 11.257337 12.956153 9.469312 1.295909 3.458711 7.811528 -7.850747 -0.595710 -0.000001 0.000002 -0.000000 -0.000001 -0.000000 -3.499219 -12.433927 -0.642089 12.991711 0.479759 1.553153 -3.317409 -0.081412 -1.331793 -4.111708 0.000011 0.000001 -0.000001 -0.000001 -0.000000 
-1.246003 199.964508 -3.991285 -6.292828 -14.283461 -3.241028 8.696597 -4.100063 -7.851567 1.559098 -0.826060 -2.030602 1.584915 -0.777325 -2.033168 -0.853129 3.397245 -1.448267 13.019512 35.569255 -20.668421 -0.000000 0.000002 0.000002 -0.000000 0.000002 0.000002 -0.000000 0.000002 0.000002 0.558371 -3.928447 -11.848355 -32.879066 11.814829 -49.281649 -0.000051 -62.452313 -0.000044 -104.497318 13.908525 -37.536206 -0.534751 3.949381 -42.094695 3.948712 5.534184 -70.995951 4.017985 5.557460 -71.712806 -0.000000 0.000000 0.000003 6.643832 -2.002374 -15.478411 14.077988 4.659040 13.536731 -8.159306 -20.598544 10.617299 0.000001 -0.000001 0.000001 0.516278 -1.017451 -46.637218 5.175310 5.812035 -83.356571 4.233985 5.623912 -73.929797 0.000000 0.000000 -0.000003 -0.511395 0.907569 -14.755635 1.511850 3.928830 -42.081482 1.272878 3.647418 -38.465986 -0.000000 -0.000001 0.000001 -1.058046 2.024721 -11.410186 1.395512 3.796323 -40.354595 1.331699 3.720093 -39.381129 0.000000 0.000000 0.000004 0.495886 12.659744 11.101664 -9.577091 42.960920 36.917032 0.000042 103.803665 -0.000047 21.853609 11.679573 -0.926582 1.472401 -5.699580 54.895907 3.715431 -4.561175 78.321021 3.794200 -4.576687 79.309944 0.000000 -0.000002 -0.000001 4.259574 -5.608782 2.214574 15.336606 -3.441708 -12.396915 -21.717054 21.748104 -5.643055 -0.000001 0.000002 -0.000002 0.878642 -0.906729 35.627411 2.306152 -4.021302 59.653417 1.681836 -3.584433 50.261214 0.000002 0.000002 -0.000006 2.575207 -6.451875 69.477695 3.061084 -4.375686 69.937203 2.828503 -4.283840 66.857491 -0.000001 -0.000002 0.000001 4.142302 -7.381421 80.391586 3.153276 -4.408159 71.141031 3.083618 -4.383821 70.232492 0.000000 -0.000003 -0.000002 -8.187046 8.876781 11.133504 12.993722 9.472277 1.203603 3.419014 7.532692 -7.664829 -0.560710 -0.000004 0.000001 -0.000000 -0.000000 -0.000000 -3.390575 -12.506839 -0.767083 12.955366 0.233902 1.440623 -3.320064 -0.066489 -1.124070 -4.121286 0.000004 0.000001 0.000000 0.000001 0.000000 
-0.935314 199.988876 -3.903566 -6.364193 -14.056172 -3.169905 8.588725 -4.229497 -7.696650 1.562888 -0.871137 -1.981598 1.587905 -0.823367 -1.983142 -0.844166 3.414057 -1.443407 13.155344 35.680953 -20.804942 -0.000002 0.000000 -0.000000 -0.000002 0.000000 -0.000000 -0.000002 0.000000 -0.000000 0.560562 -3.828278 -11.732066 -32.695743 11.739944 -49.259598 0.000002 -62.443174 0.000012 -104.769016 13.925589 -37.613387 -0.521596 4.106633 -43.852407 4.053106 5.568874 -72.075032 4.122125 5.590631 -72.784900 0.000001 -0.000000 0.000000 6.470354 -2.056712 -16.144771 14.074144 4.712766 13.544455 -8.088580 -20.545983 10.662565 0.000000 -0.000001 0.000001 0.486800 -1.047276 -47.396643 5.185080 5.813159 -83.452979 4.243445 5.626612 -74.026150 -0.000001 0.000000 0.000001 -0.598529 1.100345 -17.294536 1.645726 4.071853 -44.000437 1.396907 3.797959 -40.375775 -0.000001 -0.000001 -0.000000 -1.077951 2.041660 -12.363567 1.412290 3.815955 -40.607534 1.348130 3.739978 -39.633819 -0.000001 0.000000 0.000000 0.481574 12.635095 11.284020 -9.599012 40.763863 35.631133 0.000052 102.611421 -0.000055 22.130327 14.094699 -1.723581 1.436203 -5.665018 54.280896 3.666547 -4.550826 77.705573 3.745149 -4.567179 78.694537 0.000001 0.000001 0.000003 4.259825 -5.609313 2.214357 15.336495 -3.442311 -12.396887 -21.716726 21.747573 -5.643323 -0.000001 0.000002 -0.000003 0.878862 -0.906817 35.628804 2.306256 -4.021348 59.654824 1.681928 -3.584506 50.262590 0.000003 0.000002 -0.000001 2.530606 -6.428876 68.861264 3.014257 -4.358366 69.322110 2.782678 -4.264003 66.242603 0.000000 -0.000003 -0.000001 4.091178 -7.374102 79.773659 3.106072 -4.391815 70.525931 3.036709 -4.366733 69.617400 -0.000001 0.000000 -0.000001 -8.127113 8.887039 10.981463 13.018656 9.486266 1.111032 3.341744 7.326241 -7.474569 -0.570314 0.000005 -0.000000 0.000000 0.000001 0.000000 -3.320877 -12.569848 -0.930750 12.953479 0.074427 1.347309 -3.325539 -0.050046 -0.934722 -4.113708 -0.000001 -0.000000 -0.000001 -0.000002 -0.000000 
